<svg width="45" height="55" viewBox="0 0 45 55" fill="none" xmlns="http://www.w3.org/2000/svg">
<path d="M4.89 45.45H1.85L1.29 47H0.33L2.85 40.07H3.9L6.41 47H5.45L4.89 45.45ZM4.63 44.71L3.37 41.19L2.11 44.71H4.63ZM7.16828 44.25C7.16828 43.6833 7.28161 43.19 7.50828 42.77C7.73495 42.3433 8.04828 42.0133 8.44828 41.78C8.85495 41.5467 9.31828 41.43 9.83828 41.43C10.5116 41.43 11.0649 41.5933 11.4983 41.92C11.9383 42.2467 12.2283 42.7 12.3683 43.28H11.3883C11.2949 42.9467 11.1116 42.6833 10.8383 42.49C10.5716 42.2967 10.2383 42.2 9.83828 42.2C9.31828 42.2 8.89828 42.38 8.57828 42.74C8.25828 43.0933 8.09828 43.5967 8.09828 44.25C8.09828 44.91 8.25828 45.42 8.57828 45.78C8.89828 46.14 9.31828 46.32 9.83828 46.32C10.2383 46.32 10.5716 46.2267 10.8383 46.04C11.1049 45.8533 11.2883 45.5867 11.3883 45.24H12.3683C12.2216 45.8 11.9283 46.25 11.4883 46.59C11.0483 46.9233 10.4983 47.09 9.83828 47.09C9.31828 47.09 8.85495 46.9733 8.44828 46.74C8.04828 46.5067 7.73495 46.1767 7.50828 45.75C7.28161 45.3233 7.16828 44.8233 7.16828 44.25ZM13.2425 44.25C13.2425 43.6833 13.3558 43.19 13.5825 42.77C13.8092 42.3433 14.1225 42.0133 14.5225 41.78C14.9292 41.5467 15.3925 41.43 15.9125 41.43C16.5858 41.43 17.1392 41.5933 17.5725 41.92C18.0125 42.2467 18.3025 42.7 18.4425 43.28H17.4625C17.3692 42.9467 17.1858 42.6833 16.9125 42.49C16.6458 42.2967 16.3125 42.2 15.9125 42.2C15.3925 42.2 14.9725 42.38 14.6525 42.74C14.3325 43.0933 14.1725 43.5967 14.1725 44.25C14.1725 44.91 14.3325 45.42 14.6525 45.78C14.9725 46.14 15.3925 46.32 15.9125 46.32C16.3125 46.32 16.6458 46.2267 16.9125 46.04C17.1792 45.8533 17.3625 45.5867 17.4625 45.24H18.4425C18.2958 45.8 18.0025 46.25 17.5625 46.59C17.1225 46.9233 16.5725 47.09 15.9125 47.09C15.3925 47.09 14.9292 46.9733 14.5225 46.74C14.1225 46.5067 13.8092 46.1767 13.5825 45.75C13.3558 45.3233 13.2425 44.8233 13.2425 44.25ZM22.0467 47.09C21.5334 47.09 21.0667 46.9733 20.6467 46.74C20.2334 46.5067 19.9067 46.1767 19.6667 45.75C19.4334 45.3167 19.3167 44.8167 19.3167 44.25C19.3167 43.69 19.4367 43.1967 19.6767 42.77C19.9234 42.3367 20.2567 42.0067 20.6767 41.78C21.0967 41.5467 21.5667 41.43 22.0867 41.43C22.6067 41.43 23.0767 41.5467 23.4967 41.78C23.9167 42.0067 24.2467 42.3333 24.4867 42.76C24.7334 43.1867 24.8567 43.6833 24.8567 44.25C24.8567 44.8167 24.7301 45.3167 24.4767 45.75C24.2301 46.1767 23.8934 46.5067 23.4667 46.74C23.0401 46.9733 22.5667 47.09 22.0467 47.09ZM22.0467 46.29C22.3734 46.29 22.6801 46.2133 22.9667 46.06C23.2534 45.9067 23.4834 45.6767 23.6567 45.37C23.8367 45.0633 23.9267 44.69 23.9267 44.25C23.9267 43.81 23.8401 43.4367 23.6667 43.13C23.4934 42.8233 23.2667 42.5967 22.9867 42.45C22.7067 42.2967 22.4034 42.22 22.0767 42.22C21.7434 42.22 21.4367 42.2967 21.1567 42.45C20.8834 42.5967 20.6634 42.8233 20.4967 43.13C20.3301 43.4367 20.2467 43.81 20.2467 44.25C20.2467 44.6967 20.3267 45.0733 20.4867 45.38C20.6534 45.6867 20.8734 45.9167 21.1467 46.07C21.4201 46.2167 21.7201 46.29 22.0467 46.29ZM30.9132 41.52V47H30.0032V46.19C29.8299 46.47 29.5865 46.69 29.2732 46.85C28.9665 47.0033 28.6265 47.08 28.2532 47.08C27.8265 47.08 27.4432 46.9933 27.1032 46.82C26.7632 46.64 26.4932 46.3733 26.2932 46.02C26.0999 45.6667 26.0032 45.2367 26.0032 44.73V41.52H26.9032V44.61C26.9032 45.15 27.0399 45.5667 27.3132 45.86C27.5865 46.1467 27.9599 46.29 28.4332 46.29C28.9199 46.29 29.3032 46.14 29.5832 45.84C29.8632 45.54 30.0032 45.1033 30.0032 44.53V41.52H30.9132ZM35.1197 41.42C35.7864 41.42 36.3264 41.6233 36.7397 42.03C37.153 42.43 37.3597 43.01 37.3597 43.77V47H36.4597V43.9C36.4597 43.3533 36.323 42.9367 36.0497 42.65C35.7764 42.3567 35.403 42.21 34.9297 42.21C34.4497 42.21 34.0664 42.36 33.7797 42.66C33.4997 42.96 33.3597 43.3967 33.3597 43.97V47H32.4497V41.52H33.3597V42.3C33.5397 42.02 33.783 41.8033 34.0897 41.65C34.403 41.4967 34.7464 41.42 35.1197 41.42ZM39.9562 42.27V45.5C39.9562 45.7667 40.0128 45.9567 40.1262 46.07C40.2395 46.1767 40.4362 46.23 40.7162 46.23H41.3862V47H40.5662C40.0595 47 39.6795 46.8833 39.4262 46.65C39.1728 46.4167 39.0462 46.0333 39.0462 45.5V42.27H38.3362V41.52H39.0462V40.14H39.9562V41.52H41.3862V42.27H39.9562Z" fill="#4F6367"/>
<circle cx="20" cy="20" r="20" fill="#255D00" fill-opacity="0.7"/>
<path d="M17.6667 21.3333C17.6667 22.2533 16.92 23 16 23C15.08 23 14.3333 22.2533 14.3333 21.3333C14.3333 20.4133 15.08 19.6666 16 19.6666C16.92 19.6666 17.6667 20.4133 17.6667 21.3333ZM24 19.6666C23.08 19.6666 22.3333 20.4133 22.3333 21.3333C22.3333 22.2533 23.08 23 24 23C24.92 23 25.6667 22.2533 25.6667 21.3333C25.6667 20.4133 24.92 19.6666 24 19.6666ZM33.3333 20C33.3333 27.36 27.36 33.3333 20 33.3333C12.64 33.3333 6.66667 27.36 6.66667 20C6.66667 12.64 12.64 6.66663 20 6.66663C27.36 6.66663 33.3333 12.64 33.3333 20ZM18.2133 9.49329C20.08 12.5866 23.4667 14.6666 27.3333 14.6666C27.9467 14.6666 28.5467 14.6 29.12 14.5066C27.2533 11.4133 23.8667 9.33329 20 9.33329C19.3867 9.33329 18.7867 9.39996 18.2133 9.49329ZM9.89334 16.6266C12.1733 15.3333 13.9333 13.2266 14.7733 10.7066C12.4933 12 10.7333 14.1066 9.89334 16.6266ZM30.6667 20C30.6667 18.96 30.5067 17.96 30.2267 17.0133C29.2933 17.2133 28.3333 17.3333 27.3333 17.3333C23.16 17.3333 19.44 15.4133 16.9867 12.4133C15.5867 15.8266 12.8 18.5066 9.33334 19.8133C9.34667 19.8666 9.33334 19.9333 9.33334 20C9.33334 25.88 14.12 30.6666 20 30.6666C25.88 30.6666 30.6667 25.88 30.6667 20Z" fill="white"/>
</svg>
