<svg width="298" height="294" viewBox="0 0 298 294" fill="none" xmlns="http://www.w3.org/2000/svg">
<g clip-path="url(#clip0_72_3)">
<path d="M228.156 276.772C224.341 273.208 222.023 267.576 222.631 262.094C223.239 256.612 227.003 251.573 231.885 250.409C236.768 249.245 242.334 252.467 243.817 257.741C244.633 247.573 245.574 236.979 250.463 228.32C254.89 220.48 262.557 214.87 270.867 213.866C279.177 212.862 287.926 216.653 293.108 223.905C298.291 231.157 299.559 241.701 295.93 250.027C293.256 256.161 288.33 260.725 283.168 264.439C266.49 276.338 246.486 281.177 226.838 278.065L228.156 276.772Z" fill="#F2F2F2"/>
<path d="M284.891 216.863C278.034 223.038 271.744 229.945 266.111 237.483C257.296 249.239 250.162 262.42 244.959 276.567C244.578 277.599 246.094 278.048 246.471 277.028C254.984 254.037 268.574 233.772 285.999 218.089C286.781 217.384 285.667 216.164 284.891 216.863Z" fill="white"/>
<path d="M95.931 275.804C101.171 270.908 104.354 263.173 103.519 255.644C102.685 248.114 97.5146 241.192 90.8083 239.594C84.102 237.995 76.4572 242.421 74.4203 249.664C73.2993 235.699 72.0075 221.148 65.2925 209.255C59.2122 198.486 48.681 190.78 37.2675 189.402C25.8541 188.023 13.8372 193.23 6.71907 203.191C-0.399079 213.152 -2.14193 227.633 2.84344 239.069C6.51598 247.494 13.2821 253.763 20.3713 258.864C42.9883 275.137 71.0447 281.924 97.7408 277.579" fill="#F2F2F2"/>
<path d="M18.0056 193.519C27.4231 202 36.0627 211.486 43.7993 221.84C51.5372 232.183 58.3496 243.331 64.1408 255.128C67.3778 261.746 70.2856 268.554 72.8514 275.522C73.3745 276.939 71.2929 277.556 70.7756 276.155C66.231 263.87 60.6084 252.107 53.9886 241.035C47.4009 230.003 39.8609 219.703 31.4746 210.281C26.7313 204.955 21.7266 199.921 16.4834 195.202C15.4087 194.234 16.9398 192.559 18.0056 193.519L18.0056 193.519Z" fill="white"/>
<path d="M213.909 278.569H88.8862V136.729C88.8862 106.551 111.09 82 138.382 82H164.414C191.706 82 213.909 106.551 213.909 136.729V278.569Z" fill="#F2F2F2"/>
<path d="M187.877 278.569H88.8862V136.729C88.8589 125.165 92.1704 113.894 98.3385 104.556C98.5659 104.214 98.7927 103.875 99.0266 103.541C102.01 99.2142 105.561 95.4037 109.561 92.2352C109.787 92.0534 110.014 91.8747 110.244 91.6961C113.591 89.1348 117.212 87.041 121.024 85.4623C121.25 85.3675 121.481 85.2724 121.711 85.1812C125.159 83.8208 128.733 82.8889 132.367 82.4028C132.592 82.3687 132.823 82.3421 133.055 82.3155C136.596 81.8968 140.168 81.8968 143.709 82.3155C143.94 82.3421 144.171 82.3687 144.399 82.4031C148.032 82.8893 151.605 83.8211 155.052 85.1812C155.282 85.2724 155.513 85.3675 155.74 85.4625C159.505 87.0213 163.083 89.0838 166.395 91.6042C166.625 91.7789 166.855 91.9576 167.082 92.1362C169.324 93.906 171.43 95.8777 173.379 98.031C174.942 99.7583 176.398 101.599 177.737 103.542C177.971 103.876 178.197 104.214 178.424 104.556C184.593 113.894 187.904 125.165 187.877 136.729V278.569Z" fill="#CCCCCC"/>
<path d="M179.828 215.129C182.854 215.129 185.308 212.416 185.308 209.069C185.308 205.722 182.854 203.009 179.828 203.009C176.801 203.009 174.347 205.722 174.347 209.069C174.347 212.416 176.801 215.129 179.828 215.129Z" fill="#236969"/>
<path d="M203.667 274.32H199.468L197.47 256.41L203.668 256.411L203.667 274.32Z" fill="#FFB8B8"/>
<path d="M196.468 272.994H204.567V278.632H191.369C191.369 277.891 191.501 277.158 191.757 276.474C192.013 275.79 192.389 275.169 192.863 274.645C193.336 274.121 193.898 273.706 194.517 273.423C195.136 273.139 195.799 272.994 196.468 272.994V272.994Z" fill="#2F2E41"/>
<path d="M224.562 274.32H220.362L218.364 256.41L224.562 256.411L224.562 274.32Z" fill="#FFB8B8"/>
<path d="M217.362 272.994H225.461V278.632H212.263C212.263 277.891 212.395 277.158 212.651 276.474C212.908 275.79 213.283 275.169 213.757 274.645C214.23 274.121 214.792 273.706 215.411 273.423C216.03 273.139 216.693 272.994 217.362 272.994V272.994Z" fill="#2F2E41"/>
<path d="M182.601 210.269C182.299 209.777 182.098 209.218 182.013 208.631C181.927 208.043 181.96 207.442 182.107 206.87C182.254 206.298 182.513 205.769 182.865 205.319C183.218 204.87 183.655 204.511 184.146 204.269L198.421 160.764L205.446 165.002L189.147 206.578C189.46 207.517 189.451 208.551 189.121 209.484C188.791 210.417 188.164 211.183 187.357 211.638C186.55 212.093 185.62 212.205 184.744 211.953C183.867 211.701 183.105 211.102 182.601 210.269V210.269Z" fill="#FFB8B8"/>
<path d="M222.416 218.444C221.95 218.148 221.547 217.743 221.238 217.257C220.928 216.77 220.719 216.215 220.624 215.629C220.53 215.044 220.552 214.442 220.691 213.867C220.829 213.293 221.08 212.758 221.425 212.302L217.003 166.281L224.997 166.685L226.835 211.953C227.489 212.645 227.891 213.579 227.965 214.577C228.038 215.575 227.778 216.569 227.233 217.369C226.689 218.169 225.897 218.72 225.01 218.919C224.122 219.117 223.199 218.948 222.416 218.444V218.444Z" fill="#FFB8B8"/>
<path d="M209.664 152.706C214.31 152.706 218.077 148.541 218.077 143.403C218.077 138.266 214.31 134.101 209.664 134.101C205.018 134.101 201.251 138.266 201.251 143.403C201.251 148.541 205.018 152.706 209.664 152.706Z" fill="#FFB8B8"/>
<path d="M222.363 207.978H196.999L197.03 207.759C197.076 207.433 201.55 175.021 198.25 164.417C197.919 163.375 197.948 162.235 198.332 161.215C198.716 160.195 199.427 159.369 200.329 158.894H200.329C205.046 156.438 214.101 153.413 221.744 160.753C222.869 161.851 223.747 163.223 224.309 164.761C224.872 166.299 225.103 167.961 224.984 169.614L222.363 207.978Z" fill="#236969"/>
<path d="M201.871 179.811L190.452 177.25L195.804 163.225C196.125 161.866 196.919 160.704 198.014 159.992C199.108 159.281 200.413 159.078 201.642 159.429C202.872 159.78 203.925 160.656 204.571 161.864C205.217 163.073 205.403 164.515 205.089 165.875L201.871 179.811Z" fill="#236969"/>
<path d="M216.495 184.567L215.809 167.167C215.288 163.896 216.982 160.804 219.586 160.299C222.191 159.795 224.735 162.064 225.258 165.359L227.838 181.617L216.495 184.567Z" fill="#236969"/>
<path d="M221.519 205.895C225.6 223.081 226.045 244.932 224.944 268.766L219.464 268.009L209.53 222.559L204.05 268.766L197.884 268.388C196.042 243.379 194.249 221.91 197.199 207.788L221.519 205.895Z" fill="#2F2E41"/>
<path d="M215.207 150.592C213.638 152.441 210.723 151.448 210.518 148.923C210.502 148.727 210.504 148.53 210.522 148.334C210.628 147.215 211.212 146.2 211.072 145.018C211.04 144.724 210.941 144.444 210.784 144.205C209.534 142.353 206.598 145.033 205.417 143.356C204.694 142.329 205.544 140.71 204.989 139.561C204.256 138.045 202.085 138.793 200.723 137.962C199.208 137.039 199.299 134.468 200.296 132.905C201.512 130.999 203.645 129.981 205.75 129.835C207.856 129.688 209.947 130.318 211.913 131.165C214.147 132.127 216.362 133.458 217.736 135.629C219.408 138.27 219.569 141.821 218.733 144.909C218.224 146.788 216.489 149.083 215.207 150.592Z" fill="#2F2E41"/>
<path d="M287.718 278.812H34.8309C34.723 278.812 34.6195 278.764 34.5433 278.68C34.4671 278.595 34.4243 278.481 34.4243 278.361C34.4243 278.242 34.4671 278.128 34.5433 278.043C34.6195 277.959 34.723 277.911 34.8309 277.911H287.718C287.826 277.911 287.929 277.959 288.006 278.043C288.082 278.128 288.125 278.242 288.125 278.361C288.125 278.481 288.082 278.595 288.006 278.68C287.929 278.764 287.826 278.812 287.718 278.812V278.812Z" fill="#3F3D56"/>
<path d="M160.646 237.475H116.117C115.531 237.478 114.967 237.225 114.55 236.769C114.132 236.314 113.895 235.694 113.891 235.045V125.145C113.895 124.496 114.132 123.876 114.55 123.421C114.967 122.965 115.531 122.712 116.117 122.715H160.646C161.232 122.712 161.796 122.965 162.214 123.421C162.631 123.876 162.868 124.496 162.872 125.145V235.045C162.868 235.694 162.631 236.314 162.214 236.769C161.796 237.225 161.232 237.478 160.646 237.475V237.475Z" fill="white"/>
<path d="M162.872 158.275H113.891V159.033H162.872V158.275Z" fill="#CCCCCC"/>
<path d="M163.044 201.494H114.062V202.252H163.044V201.494Z" fill="#CCCCCC"/>
<path d="M129.99 122.715H129.305V237.854H129.99V122.715Z" fill="#CCCCCC"/>
<path d="M147.116 122.715H146.431V237.854H147.116V122.715Z" fill="#CCCCCC"/>
<circle cx="9.5" cy="118.5" r="6.5" fill="#4F9A94"/>
<circle cx="277" cy="168" r="11" fill="#9CCC65"/>
</g>
<circle cx="246" cy="25" r="7" fill="#9CCC65"/>
<circle cx="119" cy="289" r="5" fill="#FFF9F3"/>
<circle cx="119" cy="289" r="5" fill="#E4B0ED" fill-opacity="0.19"/>
<rect x="31" width="50" height="50" rx="25" fill="white"/>
<defs>
<clipPath id="clip0_72_3">
<rect width="298" height="197" fill="white" transform="translate(0 82)"/>
</clipPath>
</defs>
</svg>
